<?xml version="1.0" standalone="no"?>
<!DOCTYPE svg PUBLIC "-//W3C//DTD SVG 20010904//EN"
 "http://www.w3.org/TR/2001/REC-SVG-20010904/DTD/svg10.dtd">
<svg version="1.0" xmlns="http://www.w3.org/2000/svg"
 width="192.000000pt" height="192.000000pt" viewBox="0 0 192.000000 192.000000"
 preserveAspectRatio="xMidYMid meet">
<metadata>
Created by potrace 1.11, written by Peter Selinger 2001-2013
</metadata>
<g transform="translate(0.000000,192.000000) scale(0.100000,-0.100000)"
fill="#000000" stroke="none">
<path d="M115 1901 c-48 -22 -79 -54 -100 -103 -13 -33 -15 -138 -15 -840 0
-759 1 -805 19 -843 22 -48 54 -79 103 -100 33 -13 138 -15 840 -15 759 0 805
1 843 19 48 22 79 54 100 103 13 33 15 138 15 838 0 700 -2 805 -15 838 -21
49 -52 81 -100 103 -38 18 -83 19 -845 19 -762 0 -807 -1 -845 -19z m455 -683
c0 -46 -12 -68 -34 -68 -46 0 -53 -17 -71 -180 -10 -85 -20 -180 -23 -210 -6
-67 -15 -80 -58 -80 -33 0 -34 1 -33 38 0 20 10 124 22 230 l23 192 -38 0
c-36 0 -38 2 -38 33 0 50 9 56 90 60 41 1 94 4 118 5 38 2 42 0 42 -20z m614
8 c55 -23 66 -48 66 -151 0 -110 -22 -253 -47 -302 -28 -57 -59 -74 -158 -85
-48 -5 -91 -6 -96 -1 -5 5 5 123 21 262 17 139 30 259 30 266 0 25 133 32 184
11z m-365 -131 c16 -8 34 -28 40 -46 23 -66 7 -228 -29 -300 -46 -89 -189 -91
-226 -4 -18 44 -18 131 1 218 15 72 44 123 79 137 34 14 104 11 135 -5z m730
1 c38 -20 51 -55 51 -144 0 -85 -20 -177 -47 -219 -34 -52 -123 -68 -180 -33
-47 28 -59 80 -45 201 11 108 37 170 80 193 35 19 105 20 141 2z"/>
<path d="M1087 1153 c-8 -12 -49 -375 -43 -380 10 -10 60 14 78 38 28 38 52
292 30 326 -9 15 -58 27 -65 16z"/>
<path d="M704 1005 c-18 -45 -36 -181 -28 -217 7 -34 39 -46 64 -23 37 34 61
246 30 265 -30 19 -51 11 -66 -25z"/>
<path d="M1446 1021 c-11 -12 -23 -54 -32 -113 -17 -116 -18 -111 4 -138 29
-36 59 -19 76 43 22 77 30 181 17 206 -14 26 -42 27 -65 2z"/>
</g>
</svg>
